<svg  xmlns="http://www.w3.org/2000/svg" xmlns:xlink="http://www.w3.org/1999/xlink" >
  <symbol id="arrow" viewBox="0 0 16 16" fill='none'>
    <path
      d="M0.991166 6.11664L14.6254 1.50174C14.6746 1.4849 14.7276 1.48266 14.778 1.4953C14.8284 1.50794 14.8741 1.53492 14.9096 1.57298C14.945 1.61103 14.9687 1.65853 14.9777 1.70975C14.9867 1.76096 14.9807 1.8137 14.9604 1.86158L9.39077 15.1367C9.3687 15.1871 9.33174 15.2295 9.28485 15.2582C9.23797 15.287 9.1834 15.3007 9.1285 15.2975C9.07361 15.2943 9.021 15.2743 8.97777 15.2403C8.93454 15.2064 8.90275 15.1599 8.88668 15.1073L6.81825 9.43957C6.79463 9.35945 6.75271 9.28592 6.69579 9.2248C6.63887 9.16368 6.56852 9.11663 6.49029 9.08739L0.984607 6.62366C0.932604 6.60428 0.887861 6.5693 0.856499 6.52351C0.825138 6.47771 0.808691 6.42335 0.809409 6.36784C0.810127 6.31234 0.827975 6.25842 0.86051 6.21345C0.893046 6.16848 0.938679 6.13467 0.991166 6.11664V6.11664Z"
      stroke="currentColor"
      stroke-width="1.04988"
      stroke-linecap="round"
      stroke-linejoin="round"
    />
    <path
      d="M14.8527 1.62649L6.73771 9.18625"
      stroke="currentColor"
      stroke-width="1.04988"
      stroke-linecap="round"
      stroke-linejoin="round"
    />
  </symbol>
  <symbol id="clock" viewBox="0 0 22 22" fill='none'>
    <circle cx="11" cy="11" r="10.5" stroke="currentColor" />
    <path
      d="M11 5.07715V12.5233L15.2308 14.3848"
      stroke="currentColor"
      stroke-linecap="round"
      stroke-linejoin="round"
    />
  </symbol>
  <symbol id="fb" viewBox="0 0 11 20">
    <path
      d="M6.74584 19.6143V10.6818H9.82124L10.2784 7.1845H6.74584V4.95684C6.74584 3.94764 7.03281 3.25667 8.511 3.25667H10.384V0.138596C9.4727 0.0428969 8.55665 -0.003311 7.6401 0.000184367C4.92174 0.000184367 3.05537 1.62625 3.05537 4.61136V7.17797H0V10.6753H3.06205V19.6143H6.74584Z"
      fill="currentColor"
    />
  </symbol>
  <symbol id="in" viewBox="0 0 19 18">
    <path
      d="M12.3928 8.65337C12.3928 7.03086 11.0948 5.73285 9.47227 5.73285C7.84977 5.73285 6.55176 7.03086 6.55176 8.65337C6.55176 10.2759 7.84977 11.5739 9.47227 11.5739C11.0948 11.5739 12.3928 10.2759 12.3928 8.65337ZM13.9071 8.65337C13.9071 11.1412 11.9601 13.0882 9.47227 13.0882C6.98443 13.0882 5.03742 11.1412 5.03742 8.65337C5.03742 6.16552 6.98443 4.21852 9.47227 4.21852C11.9601 4.21852 13.9071 6.16552 13.9071 8.65337ZM15.097 4.00218C15.097 4.65118 14.6643 5.08385 14.0153 5.08385C13.3663 5.08385 12.9336 4.65118 12.9336 4.00218C12.9336 3.35318 13.3663 2.92051 14.0153 2.92051C14.6643 2.92051 15.097 3.46135 15.097 4.00218ZM9.47227 1.51434C8.17427 1.51434 5.47009 1.40617 4.38842 1.83884C3.63125 2.16334 2.98225 2.81234 2.76592 3.56951C2.33325 4.65118 2.44141 7.35536 2.44141 8.65337C2.44141 9.95137 2.33325 12.6555 2.76592 13.7372C2.98225 14.4944 3.63125 15.1434 4.38842 15.3597C5.47009 15.7924 8.28244 15.6842 9.47227 15.6842C10.6621 15.6842 13.4745 15.7924 14.5561 15.3597C15.3133 15.0352 15.8541 14.4944 16.1786 13.7372C16.6113 12.5474 16.5031 9.8432 16.5031 8.65337C16.5031 7.46353 16.6113 4.65118 16.1786 3.56951C15.9623 2.81234 15.3133 2.16334 14.5561 1.94701C13.4745 1.40617 10.7703 1.51434 9.47227 1.51434ZM18.1256 8.65337V12.2229C18.1256 13.5209 17.693 14.8189 16.7195 15.9006C15.746 16.8741 14.448 17.3067 13.0418 17.3067H5.90276C4.60476 17.3067 3.30675 16.8741 2.22508 15.9006C1.35974 14.9271 0.818909 13.6291 0.818909 12.2229V8.65337V5.08385C0.818909 3.67768 1.35974 2.37968 2.22508 1.40617C3.30675 0.540835 4.60476 0 5.90276 0H13.0418C14.3398 0 15.6378 0.432668 16.7195 1.40617C17.5848 2.37968 18.1256 3.67768 18.1256 5.08385V8.65337Z"
      fill="currentColor"
    />
  </symbol>
    <symbol
    id="tw"
    viewBox="0 0 21 15"
    >
    <path
      d="M6.5325 14.999C8.12706 15.0079 9.70773 14.7353 11.1829 14.1971C12.658 13.6588 13.9982 12.8656 15.1257 11.8635C16.2532 10.8614 17.1457 9.67021 17.7513 8.35915C18.3569 7.04808 18.6635 5.6432 18.6535 4.22599V3.73097C19.4801 3.19273 20.1955 2.53132 20.7681 1.77606C19.9898 2.0786 19.1662 2.27926 18.3231 2.37176C19.217 1.89837 19.8877 1.15323 20.2111 0.274218C19.3781 0.718428 18.4645 1.03071 17.5113 1.19714C16.8693 0.589157 16.0197 0.186169 15.0941 0.050525C14.1685 -0.0851185 13.2184 0.0541442 12.3907 0.446766C11.5631 0.839387 10.9042 1.46348 10.5158 2.22248C10.1275 2.98148 10.0314 3.83307 10.2424 4.64549C8.54892 4.57161 6.8919 4.18154 5.37927 3.50066C3.86664 2.81979 2.53232 1.86338 1.46321 0.693727C0.924106 1.52534 0.760703 2.50795 1.00608 3.44261C1.25146 4.37728 1.88728 5.19415 2.78481 5.72782C2.1227 5.70513 1.4759 5.54417 0.896803 5.25797V5.29993C0.89092 6.16901 1.22033 7.01363 1.83014 7.69303C2.43995 8.37242 3.29332 8.84555 4.24802 9.03355C3.63218 9.18076 2.9871 9.2037 2.36001 9.10067C2.6364 9.84185 3.164 10.4889 3.87046 10.953C4.57692 11.4172 5.42763 11.6757 6.30594 11.6932C4.80423 12.7676 2.93783 13.359 1.01008 13.3713C0.672086 13.3626 0.334883 13.3374 0 13.2958C1.95121 14.4007 4.21894 14.9832 6.5325 14.9738"
      fill="currentColor"
    />
  </symbol>
  <symbol
    id="yt"
    viewBox="0 0 24 17"
    fill='none'
    >
    <path
      d="M22.5395 3.348C22.4207 2.88753 22.1788 2.46563 21.8381 2.12491C21.4975 1.78419 21.0703 1.53673 20.5996 1.4075C18.8796 1 12 1 12 1C12 1 5.12036 1 3.40045 1.44631C2.92972 1.57553 2.50247 1.823 2.16186 2.16372C1.82124 2.50444 1.57933 2.92634 1.46055 3.3868C1.14578 5.08042 0.991808 6.79849 1.00057 8.51941C0.989351 10.2533 1.14333 11.9844 1.46055 13.6908C1.5915 14.137 1.83883 14.5428 2.17865 14.8692C2.51847 15.1955 2.93929 15.4313 3.40045 15.5537C5.12036 16 12 16 12 16C12 16 18.8796 16 20.5996 15.5537C21.0703 15.4245 21.4975 15.177 21.8381 14.8363C22.1788 14.4956 22.4207 14.0737 22.5395 13.6132C22.8518 11.9323 23.0058 10.2274 22.9994 8.51941C23.0107 6.78553 22.8567 5.05436 22.5395 3.348V3.348Z"
      stroke="currentColor"
      stroke-width="1.5"
      stroke-linecap="round"
      stroke-linejoin="round"
    />
    <path
      d="M10 12L16 8.5L10 5V12Z"
      stroke="currentColor"
      stroke-width="1.5"
      stroke-linecap="round"
      stroke-linejoin="round"
    />
  </symbol>
  <symbol>
    <svg
      viewBox="0 0 13 15"
      fill="none"
      id='bag'
    >
    <path
      d="M1.55011 5.39702C1.56263 5.23778 1.63347 5.08921 1.74852 4.98088C1.86357 4.87254 2.01439 4.81241 2.17094 4.81244H10.8291C10.9856 4.81241 11.1364 4.87254 11.2515 4.98088C11.3665 5.08921 11.4374 5.23778 11.4499 5.39702L11.996 12.3357C12.0098 12.5105 11.9879 12.6864 11.9318 12.8522C11.8756 13.018 11.7865 13.1702 11.6699 13.2991C11.5533 13.428 11.4118 13.5309 11.2544 13.6013C11.0969 13.6717 10.9269 13.7081 10.755 13.7082H2.24505C2.07313 13.7081 1.90309 13.6717 1.74562 13.6013C1.58816 13.5309 1.44668 13.428 1.3301 13.2991C1.21352 13.1702 1.12436 13.018 1.06824 12.8522C1.01211 12.6864 0.990239 12.5105 1.00399 12.3357L1.54948 5.39702H1.55011Z"
      stroke="currentColor"
      stroke-width="0.812543"
      stroke-linecap="round"
      stroke-linejoin="round"
    />
    <path
      d="M8.99041 6.71868V3.54164C8.99041 2.86755 8.72799 2.22108 8.26087 1.74443C7.79375 1.26778 7.1602 1 6.4996 1C5.839 1 5.20545 1.26778 4.73833 1.74443C4.27121 2.22108 4.00879 2.86755 4.00879 3.54164V6.71868"
      stroke="currentColor"
      stroke-width="0.812543"
      stroke-linecap="round"
      stroke-linejoin="round"
    />
    </svg>
  </symbol>
</svg>